# xmcd
#
# Track frame offsets: 
#        150
#        25132
#        43275
#        55455
#        73292
#        92245
#        106742
#        119055
#        145470
#        160185
#        174630
#
# Disc length: 2334 seconds
#
# Revision: 1
# Processed by: cddbd v1.5.1PL0 Copyright (c) Steve Scherf et al.
# Submitted via: ExactAudioCopy v0.90b4
#
DISCID=a7091c0b
DTITLE=Kevin Bloody Wilson - Born Again Piss Tank
DYEAR=1987
DGENRE=Comedy
TTITLE0=Born Again Piss Tank
TTITLE1=Kev's Love Song (Dinkum 'Bout Ya Darlin')
TTITLE2=Supa Mega Fuggly
TTITLE3=Manuel the Bandito
TTITLE4=I Knew the Bride (When She Used to Be a Moll)
TTITLE5=Fair and Just
TTITLE6=Anytime at All
TTITLE7=The Kid (He Swears a Little Bit)
TTITLE8=Dick on Her Mind
TTITLE9=Rootin' in the Back of the Ute
TTITLE10=Backwards Message
EXTD=
EXTT0=
EXTT1=
EXTT2=
EXTT3=
EXTT4=
EXTT5=
EXTT6=
EXTT7=
EXTT8=
EXTT9=
EXTT10=
PLAYORDER=
